<?xml version="1.0" encoding="utf-8"?>
<!-- Generator: Adobe Illustrator 27.5.0, SVG Export Plug-In . SVG Version: 6.00 Build 0)  -->
<svg version="1.1" id="Calque_1" xmlns="http://www.w3.org/2000/svg" xmlns:xlink="http://www.w3.org/1999/xlink" x="0px" y="0px"
	 viewBox="0 0 1519.8 1145.6" style="enable-background:new 0 0 1519.8 1145.6;" xml:space="preserve">
<style type="text/css">
	.st0{fill:none;}
	.st1{fill:url(#SVGID_1_);}
	.st2{fill:url(#SVGID_00000061461864695261700350000013671376236004488839_);}
	.st3{fill:url(#SVGID_00000173869551455386589090000014195206386638551699_);}
	.st4{fill:url(#SVGID_00000176744431255949403300000001237304834477716920_);}
	.st5{fill:url(#SVGID_00000033359512609360971580000005350827308661800870_);}
	.st6{fill:url(#SVGID_00000146498525816577619940000012947432174949904292_);}
	.st7{fill:url(#SVGID_00000142893718513017315450000005561376754939942282_);}
	.st8{fill:url(#SVGID_00000035490103229790522860000000811126308553273002_);}
</style>
<g>
	<g>
		<path class="st0" d="M405.7,572.3c-28.4-54.1-128.7,44-158.4,74.6c-23.1,45.9-48.7,98.3-70.9,148.8
			C248.2,750.1,436.3,635,405.7,572.3L405.7,572.3z"/>
		<path class="st0" d="M456.6,764.3l-22.8,22.7c-19.3,19.3-51.8,60.3-55.3,74.3l-0.3,0.9l-0.1,1c-0.5,5,0.9,9.7,4,13.2
			c3.2,3.7,7.9,5.7,13.1,5.8c15.5,0.2,41.7-18.3,53.6-37.5c10-14.4,9.9-38.5,9.4-48.2L456.6,764.3L456.6,764.3z"/>
		
			<linearGradient id="SVGID_1_" gradientUnits="userSpaceOnUse" x1="-33.8202" y1="296.3213" x2="1386.8499" y2="296.3213" gradientTransform="matrix(0.9999 1.326411e-02 1.326411e-02 -0.9999 83.7214 1112.8781)">
			<stop  offset="0" style="stop-color:#E30521"/>
			<stop  offset="1" style="stop-color:#F29100"/>
		</linearGradient>
		<path class="st1" d="M442.1,717.7c-12.3-7.5-43.5-8.8-18.8,9.2c3.8,2,6.2,4.9,8.6,8.5l-8,2.7c-26.3,7.3-66.2,64.4-84.8,93.5
			c-18.4,29.1-14.4,89.7,34.1,96.8c48.6,7.7,120.2-39.8,133.3-100.6C519.7,766.9,454.5,726.7,442.1,717.7L442.1,717.7z M448.9,844.6
			c-11.9,19.3-38.1,37.7-53.6,37.5c-5.3-0.1-9.9-2.1-13.1-5.7c-3.2-3.5-4.5-8.2-4-13.2l0.1-1l0.3-0.9c3.5-14,36-55,55.3-74.3
			l22.8-22.7l1.7,32.1C458.8,806.2,459,830.2,448.9,844.6L448.9,844.6z"/>
		
			<linearGradient id="SVGID_00000172422877666768584500000000188601478835890068_" gradientUnits="userSpaceOnUse" x1="-33.8402" y1="444.3788" x2="1386.8899" y2="444.3788" gradientTransform="matrix(0.9999 1.326411e-02 1.326411e-02 -0.9999 83.7214 1112.8781)">
			<stop  offset="0" style="stop-color:#E30521"/>
			<stop  offset="1" style="stop-color:#F29100"/>
		</linearGradient>
		<path style="fill:url(#SVGID_00000172422877666768584500000000188601478835890068_);" d="M1024,703.5c7.1,13.5,32.6,2.3,41.4-5.7
			c8.8-8,19.1-12,11.7-20.3c-8-8.3-16.5-27-26.3-24.7c-2.9,0.2-24,7.1-33.6,11.1C1008.7,667.2,1015.8,690.6,1024,703.5L1024,703.5z"
			/>
		
			<linearGradient id="SVGID_00000147940487040442315460000002371718607729935287_" gradientUnits="userSpaceOnUse" x1="-33.9012" y1="328.2722" x2="1386.7788" y2="328.2722" gradientTransform="matrix(0.9999 1.326411e-02 1.326411e-02 -0.9999 83.7214 1112.8781)">
			<stop  offset="0" style="stop-color:#E30521"/>
			<stop  offset="1" style="stop-color:#F29100"/>
		</linearGradient>
		<path style="fill:url(#SVGID_00000147940487040442315460000002371718607729935287_);" d="M456.5,1064.2
			c-2.8,1.3-58.9-27.6-115.8-115.5c-63.9-98.7-69.9-136-78.2-172.1c164.5-78.4,228.3-175.2,210.4-227.6
			c-20.5-58-88.5-81.6-186.7,22.8c16.3-31.6,27.3-53.1,29.9-59.6c8.2-20.2-41.6-40.7-52.5-37.2c-21.5,9.3-50.1,81.6-72.9,133.2
			c-22.2,51-119,288.8-134.1,352.2c-16.3,62.9,9.8,85.9,23.8,86.8c14,1.6,15.7-10.7,16.8-20.6c-0.4-8.7,2.4-52.3,60-188.2
			c3.7-7.2,6.2-14.8,9.8-22.6c15.9-5.5,30.7-11.5,44.9-16.9c1.5,17.9,17,67.5,49.6,125.5c48.2,87.3,116.4,169.5,158.5,176.5
			C467.5,1107.7,475.8,1057.4,456.5,1064.2L456.5,1064.2z M176.5,795.7c22.2-50.5,47.8-102.9,70.9-148.8
			c29.7-30.6,129.9-128.8,158.4-74.6C436.3,635,248.2,750.1,176.5,795.7L176.5,795.7z"/>
		
			<linearGradient id="SVGID_00000119810369987488173550000002889743821956456070_" gradientUnits="userSpaceOnUse" x1="-33.8402" y1="230.1741" x2="1386.8899" y2="230.1741" gradientTransform="matrix(0.9999 1.326411e-02 1.326411e-02 -0.9999 83.7214 1112.8781)">
			<stop  offset="0" style="stop-color:#E30521"/>
			<stop  offset="1" style="stop-color:#F29100"/>
		</linearGradient>
		<path style="fill:url(#SVGID_00000119810369987488173550000002889743821956456070_);" d="M1252.8,873.7c-8.7,2.9,1.1,20.3,4,27.2
			c2.3,7.5,2.3,17.4,12.1,22c9.3,4.1,23.7,0.6,32.4-8c8.7-8.7,13.9-15,3-26.6C1293.4,876.1,1266.7,869.1,1252.8,873.7L1252.8,873.7z
			"/>
		
			<linearGradient id="SVGID_00000147202435421102527830000001336036211131256505_" gradientUnits="userSpaceOnUse" x1="-33.8402" y1="362.9031" x2="1386.8899" y2="362.9031" gradientTransform="matrix(0.9999 1.326411e-02 1.326411e-02 -0.9999 83.7214 1112.8781)">
			<stop  offset="0" style="stop-color:#E30521"/>
			<stop  offset="1" style="stop-color:#F29100"/>
		</linearGradient>
		<path style="fill:url(#SVGID_00000147202435421102527830000001336036211131256505_);" d="M1305.3,682c1.6-4.9-5.8-6.9-44.6,0
			c-11.3,2.4-26.9,3.9-44.2,6.6c49.4-100.9,83.3-143.1,96.6-164.3c3.8-6.8,11.1-6.6,10.1-13.8c-2.2-7.1-31.8-26.8-53.7-14.8
			c-14.4,9.1-32.1,21.8-78.2,106.8c-12.6,24.2-27.7,56.9-42.6,93.9c-16.2,1.5-28.8,2.8-33.6,3c-20.3,2.9-18.1-0.8-32.8,6.6
			c-15.3,6.8-4.4,53.3,16,50.4c6.6-0.3,16.2-2.1,28.7-4.6c-7.1,19.2-14.2,38.4-21,56.9c-33.4,21.2-81.9,50.8-93.8,54.8
			c-16.5,5.5,17.7-69.4,27.1-77.4c10.7-7,14.7-7.7,14.7-17c1.2-9.3-22.7-33-33.6-32.4c-4.6,0.2-8.7,0.5-23.3,20.4
			c-14.6,19.3-37.3,82-38.6,113.4c-1.1,33.1,22.5,52.1,44.2,44.6c12.8-3.8,52.9-34.5,87.4-62.8c-14,38.7-25.1,69.9-29.8,83.3
			c-16.4,41.8-19.4,77-5.8,93.7c13.5,16.1,28,4.5,33.5-15.7c5.5-20.2,9.4-61.4,84-231.1c6.9-16.6,14-30.3,20.5-44.5
			c19.6-5.3,38.7-8.7,52.4-11.8C1285.5,717.4,1304.3,686.3,1305.3,682L1305.3,682z"/>
		
			<linearGradient id="SVGID_00000170962083486756622270000002488442683307465355_" gradientUnits="userSpaceOnUse" x1="52.54" y1="358.7233" x2="1475.45" y2="358.7233" gradientTransform="matrix(1 0 0 -1 0 1145)">
			<stop  offset="0" style="stop-color:#E30521"/>
			<stop  offset="1" style="stop-color:#F29100"/>
		</linearGradient>
		<path style="fill:url(#SVGID_00000170962083486756622270000002488442683307465355_);" d="M873.1,905.7
			c-12.6,13.2-21.9,20.8-30.3,25.2s-15.6,5.7-24.3,6.2c-17,0.9-35.8-13.6-50.5-32.2s-25.3-41.2-26.2-56.5c-2.5,2.7-4.8,5.6-7.3,8.4
			s-5.3,5.4-8.6,7.6c-9.3,26-17,47.3-24.1,62c-7,14.7-13.4,22.7-20.1,22.2c-8.2-0.5-14.5-10.8-17.8-23.3
			c-3.3-12.4-3.5-26.9,0.7-35.6c0.2-0.3,0.4-0.7,0.6-1.2s0.4-1,0.7-1.5c-18.2,11.1-35.6,21.1-50.2,28.7s-26.5,12.7-33.5,14
			c-13.5,2.7-26.4-0.2-37.2-6.4c-10.8-6.2-19.4-15.8-24.3-26.2c-4.9-10.5-8.8-20.4-9.9-31c-1.1-10.6,0.4-21.8,6.4-34.9
			c5.4-13.3,25.3-41.8,47.5-68c22.2-26.2,46.7-50.2,61.3-54.4c8-2.2,20-2.7,31.3-0.4c11.3,2.3,21.8,7.4,27,16.4
			c5.1,8.7,6.9,15.6,6.2,20.2c-0.7,4.7-3.9,7.2-8.8,7.1c-4.3,0.2-6.6-4.7-10.8-7.6c-4.2-2.9-10.3-3.7-22.4,4.8
			c-12.3,8.2-30,27.1-45.6,47.2s-29.1,41.2-33.1,53.9c-4,12.7-3.7,23.7,2.8,29.5c6.5,5.8,19.1,6.5,39.9-1.6
			c9.2-3.5,20.4-8.5,32.8-14.6s26-13.4,40-21.4c11.2-26.7,30.8-72.6,49.1-115.5s35.4-83,41.8-97.8c0.8-1.8,2.1-3.1,3.7-3.9
			c1.6-0.8,3.5-1,5.3-0.6l14.3,3.6l14.3,3.6c1.5,0.4,2.6,1.4,3.2,2.7c0.6,1.3,0.7,2.8,0,4.2c-12,25.1-25.1,53.2-37.2,81.1
			c-12.1,27.8-23.2,55.4-31.3,79.3c24.7-20.2,53.3-41.1,79.1-57c25.8-15.9,48.7-26.7,62-26.5c13.6,0.1,9.7,13.5,1,26.8
			c-8.7,13.2-22.2,26.3-27.8,25.7c-4.9,0.3-17.7,6-33.6,15c-16,9-35.2,21.2-53,34.3c2.4,6.8,4.5,14.5,7.1,22.9
			c2.5,8.3,5.5,17.3,9.5,26.7c4,9.3,10.4,17.4,18.5,22.2c8.2,4.8,18.1,6.3,29.2,2.5c7.1-2.4,15.6-6.9,24.1-12.2s17.2-11.2,24.8-16.6
			c7.5-5,10.1-0.7,7.5,8.2C894.1,879.5,886.3,892.8,873.1,905.7L873.1,905.7z"/>
		
			<linearGradient id="SVGID_00000078723114795981045750000005433920657082391179_" gradientUnits="userSpaceOnUse" x1="-33.8402" y1="479.4979" x2="1386.8899" y2="479.4979" gradientTransform="matrix(0.9999 1.326411e-02 1.326411e-02 -0.9999 83.7214 1112.8781)">
			<stop  offset="0" style="stop-color:#E30521"/>
			<stop  offset="1" style="stop-color:#F29100"/>
		</linearGradient>
		<path style="fill:url(#SVGID_00000078723114795981045750000005433920657082391179_);" d="M1432.1,479.7
			c-20.9,6.3-50,72.3-73.2,117.4c-23.3,46.3-48.9,103.5-67,161.4c-18.7,56.7-5.9,60.8,6.2,62.5c12.2,2.3,20.9-8.6,21.5-17.3
			c1.8-9.8,6.4-26.6,60.5-130.2c60.5-117.4,90.1-138.8,97.7-157.3C1485.3,497.8,1443.7,476.3,1432.1,479.7L1432.1,479.7z"/>
	</g>
	
		<linearGradient id="SVGID_00000058571032848908887940000013227595653668837785_" gradientUnits="userSpaceOnUse" x1="104.0402" y1="819.745" x2="1271.584" y2="819.745" gradientTransform="matrix(1 0 0 -1 0 1145)">
		<stop  offset="0" style="stop-color:#F29100"/>
		<stop  offset="1" style="stop-color:#E30521"/>
	</linearGradient>
	<path style="fill:url(#SVGID_00000058571032848908887940000013227595653668837785_);" d="M1271.6,321.1c0.4,8.7-2.8,40.9-5.7,67.4
		c-3.1,28.2-13.8,55-31.1,77.5c-30.5,39.6-86.5,97.1-165.3,116.7l-0.2,0.1c1.7-4.7,35.4-94.3-18.4-145.9c1.3,5,9.3,29.7,10.5,42.2
		c10.8,114.5-38.1,143.9-120.7,134.9c58.8-23.1,75.9-70,80.4-92.7c4.3-22.7,0.9-47.4-5.3-69.3c0,0,2,15.4-2.5,36.3
		c-36.3,168.1-205,100.5-205,100.5c11.7-1.2,32.3-3,50.8-10c11.2-4.2,22.3-8.5,32.7-14.3c20.7-11.9,38.8-27.7,53.3-46.1
		c14.3-18.4,25.9-39,31.3-61.5c-14.5,17.7-29.5,33.8-45.5,48.4c-16,14.5-33.1,27.3-51.3,37.7c-9.2,5.2-43.9,30.8-113.8,32.8
		c-59.9,1.8-150.2-32.6-198.4-67.2c-46.3-33.2-91.6-62.5-147.3-77.9C354,412.4,277.7,409,215,440.5c-27.8,14-51.2,35-68.3,61
		c-8.6,13-15.4,27.1-20.8,41.7c-6.1,16.4-21.8,72.2-21.8,72.2c0-33.5,3.3-71.6,7.8-88.5c8.1-30.9,19.2-64.4,38.2-90.1
		c85.4-116.4,252.1-97.9,386.8-38.6c52,22.9,96.3,56.4,147.6,79.8c34,15.5,71.1,24.2,108.6,23.6c20.2-0.3,44.2-2.6,63.8-7.7
		c3.7-1,9.1-2.9,14.7-4.7c22.1-8.8,44-22.6,62.1-44c14.1-16.7,33.3-28.5,54.8-32.7c19.1-3.7,41.7-10.9,56.7-24.9
		c6.9-6.4,65.7,34.2,81.1,88.2c11-24.6,22.2-47.7,27.4-57.7c2.9-5.7,7.7-72.6,6.7-77.2c-4-18.6-4.2-35.6-2.9-49.7
		c-25.7-12.5-59.4-29.6-77.1-41.6c-13.2,6.7-35.6,17.5-61.4,27.6l0.2,0.2c-6.1,16.1,25.6,19.6,29.1,34.2c4.3,17.6-6.8,54.8-6.8,54.8
		c-18.5,21.5-49.7,26.9-73.4,30.9c-7.7,1.3-15.2-3.1-17.9-10.4c-2.6-6.9-6-15.5-9.5-22.9c-6.2-13.2-14.5-23.2-23.9-30.8
		c-30.6-14.3-70,19.2-87.2,32.7c8.1,10.9,17.7,21.8,27.3,31.5c2.9,2.9,12,13.8,20.4,23.8h0c9.3-0.3,5.5-3.4,21.4-11.8
		c16.4-8.5,30-5.4,31-4.1c0.9,1.1-3.5,2.9-4.2,3.3c1.4-0.2,13.1-1.4,18.2-0.1c5.4,1.4,3,4.9,0.2,4.9c-2.5,0-14.2,4.2-16.7,5.2
		c2.6-0.6,13.5-3.2,17.5-0.7c4.6,2.8-1.5,4.3-1.5,4.3c-15.8,1.1-25.5,9.5-28.4,10.7c-1.1,0.5-2.2,1.4-3.1,2.2
		c-1.5,1.4-2.5,2.9-2.5,2.9s2.5-0.7,5.6-1.3c4.9-1,11.2-1.6,11.6,0.9c0.2,1.5-1.2,2.7-3.7,3.7c-2.3,1-5.6,1.8-9.1,2.7
		c-2.7,0.6-5.4,1.3-8,2.1c-3.5,1.1-9.7,2.8-14.1,2c-5.4-1.1-11.2-4-17.9-5.8c-9-2.4-13.3-6.6-13.7-7c-33.3-29.4-71.2-51-80.6-63.6
		l-0.1-0.1c-3-4-2.3-9.7,1.7-12.8c18.1-13.9,60.1-44.9,80.8-66.6c4.2-4.4,9.3-10.1,14.1-15.8c7.3-8.7,20.1-10.6,22.7-11
		c1.8-0.3,3.2-0.5,3.6-0.5c13.2-1,23.5-11.9,23.9-25.2c0.2-6.5,0.2-13.1,0.2-17.5c-0.3,0.2-0.5,0.4-0.7,0.6
		c-1.7,1.8-3.4,3.6-5.5,4.9c-24.9,15.5-55.2,16.3-83.3,13.9c-38.1-3.4-77.8-21.7-115.1-6.2c19.6-26.5,64.5-8.7,83.9-36.9
		c-16.2,10.5-29.6,11.7-47.8,2.3c12.9-0.8,21.4-3.3,27.3-11.7c-11.6,7.3-33.8,6.4-42.8-2.3c-8.6-8.2-18.9-10.4-35.5-4.9
		c21.3-21.5,39.7-8.1,58.1-7c12.9,0.8,18.4-9.6,29.2-14.8c7.5-3.7,16-5.9,24.4-6c-17.9-2.4-26-13.2-39.7-17.8
		c-11.2-3.6-30.6,6.1-41.9,9.5c29.8-46.2,59-20.7,80.4-17.7c14.8,2.1,30.6-5.1,43-12.8c-3.4-1.3-5.7-4.6-6.8-7.9
		c12.8,4.9,26.4-0.8,38.2-5.7c15.9-6.6,33-9.1,50.1-7.2c56.6,6.1,55.9,42.1,53.6,53.7c-0.9,4.4-2.4,7.1-3.1,10.8
		c-1.2,6.1,4.9,11.8,7.9,14.1c2.4,1.8,6.5,3.5,3.8,6.9c-2.7,3.4-6.8,3.5-4.4,8.6c1.8,3.7-0.6,4.9-3.7,6.8c1.7-0.1,3.9,0.5,4.3,2.5
		c0.3,2-1.7,2.3-2.3,3.9c-0.7,1.9,0.6,4.1,0.7,6.1c0.2,2-0.2,4.2-1.5,5.8c-6.7,7.7-21.1-3.5-26.3,6.6c-2,3.9-4.9,11.3-5,15.8
		c-0.4,14.7,6.5,16.1,11,16.4c14.2-4,33.1-10.7,58.2-21.4c2.6-1.1,5.1-2.2,7.6-3.3c4.4-2,6.7-6.8,5.5-11.5
		c-12.5-48.6-27.2-84.4-30.2-113.2l0,0c-5-20.7-1.2-28.5,4.6-38.5c5.3-9.2,18.3-17.6,21.5-12.7c3.8-7.2,5.6-11.9,6.6-14.4
		c0.5-1.3,1.9-2.2,3.3-2.3l0.2,0c1.9,0.1,3.4,1.6,3.4,3.5v2.9c0,2.9,3.3,4.6,5.7,3l0.5-0.4c1.9-1.4,4.7-0.6,5.5,1.7l0.8,2
		c0.4,1.2,0.2,2.5-0.6,3.4l-8,10.3c-0.5,0.6-0.7,1.3-0.8,2.1c-0.1,3.3-2.2,18.8-13.5,29l62.9,110.1c0,0,28.1,18.6,83.6,30
		c1.5,0.3,2.8-1.4,3.7-2.6c2.9-5.1-2.6-11.1-3.2-11.3c-4.7-1.6-23.2,4.2-26.7,0.5c-6.2-6.5-2.2-11.9-2-13c0.6-2.9-4.4,0.9-4.7-7.1
		c0-0.7,0.8-1.3,1.5-1.7c-2.7,0.7-3.5-2.1-3.2-3.4c1.4-6.9,1-9.6,0.4-9.8c-3-1.1-9.8-3.2-8.1-7.4c7.8-19.2,7.3-22.9,7.3-22.9
		s-1.9-3.6-2.8-6.6c-1-3,6-31.4,6.1-33.3c0-0.4-3.9,1.5-3.1-5.1c0.7-6.1,15.8-17.9,42.1-20.9c10-1.2,24.8,0,38.5,2.9
		c9.9,2.1,18.1,9.2,21.5,18.7c4.9,13.9,8.3,38.3-1.9,71.7c-1,3.4-8.3,6.5-8.5,9c-0.1,1.7-1,14.3,2.4,19.4c1.3,1.9,8.3,4.7,9,7.3
		C1271.9,256.6,1269.9,286.4,1271.6,321.1L1271.6,321.1z M556.1,363.2c67.7,34.4,155.9,125.6,304.6,105.8
		c-169.3-16.8-213.5-112.9-313.8-147.2c-92.9-31.8-176-7.2-235.6,10.9C419.3,316.7,488.4,328.9,556.1,363.2z"/>
</g>
</svg>
